<svg width="1273" height="171" viewBox="0 0 1273 171" fill="none" xmlns="http://www.w3.org/2000/svg">
<path opacity="0.33" d="M90.5 160.5C64.0354 162.057 38 153 0 140V0H1273V140C1273 140 1208.59 120.095 1166 118.5C1113.62 116.538 1033.5 140 1033.5 140C1033.5 140 937.659 178.048 876 168C836.884 161.625 781.5 131 781.5 131C781.5 131 728.13 105.322 691.5 104.5C656.413 103.713 604 125 604 125C604 125 503.837 166.625 438.5 158C403.601 153.393 352.5 131 352.5 131C352.5 131 292.379 108.573 252.5 110C211.193 111.478 151 140 151 140C151 140 116 159 90.5 160.5Z" fill="#FFBB58"/>
</svg>
