<svg width="24" height="24" viewBox="0 0 24 24" fill="none" xmlns="http://www.w3.org/2000/svg">
<path d="M13.5898 2.25C14.2538 2.25 14.8867 2.50497 15.3555 2.96191L19.5195 7.01855C19.9882 7.47558 20.25 8.09673 20.25 8.74414V19.3125C20.25 20.6569 19.1289 21.75 17.75 21.75H6.25C4.87109 21.75 3.75 20.6569 3.75 19.3125V4.6875C3.75 3.34307 4.87109 2.25 6.25 2.25H13.5898ZM9.23047 10.6152C8.7664 10.6152 8.34663 10.7173 7.97266 10.9219C7.59881 11.1265 7.30224 11.4263 7.08301 11.8203C6.86379 12.2144 6.75393 12.6949 6.75391 13.2617C6.75391 13.827 6.86224 14.307 7.07812 14.7012C7.29393 15.0951 7.58791 15.3953 7.95996 15.6016C8.33393 15.8062 8.7579 15.9082 9.23047 15.9082C9.58888 15.9082 9.90667 15.8553 10.1836 15.748C10.4624 15.6407 10.6988 15.4956 10.8926 15.3145C11.0861 15.1318 11.2382 14.9301 11.3486 14.709C11.4608 14.4876 11.5287 14.2623 11.5508 14.0342L10.2754 14.0264C10.2533 14.1504 10.214 14.2624 10.1562 14.3613C10.1002 14.4585 10.0277 14.5416 9.93945 14.6104C9.8528 14.6774 9.75126 14.7285 9.63574 14.7637C9.5219 14.7989 9.39518 14.8164 9.25586 14.8164C9.00769 14.8164 8.79223 14.7593 8.61035 14.6436C8.43016 14.5261 8.28975 14.3519 8.18945 14.1221C8.09096 13.8907 8.04199 13.6037 8.04199 13.2617C8.04201 12.9331 8.09067 12.6533 8.1875 12.4219C8.28609 12.1904 8.42651 12.0131 8.6084 11.8906C8.79192 11.7683 9.01053 11.707 9.26367 11.707C9.40629 11.7071 9.53614 11.7274 9.65332 11.7676C9.77218 11.8061 9.87528 11.8619 9.96191 11.9355C10.0486 12.0093 10.1182 12.0991 10.1709 12.2031C10.2235 12.307 10.2584 12.4237 10.2754 12.5527H11.5508C11.5202 12.2441 11.441 11.9693 11.3135 11.7295C11.186 11.4897 11.0203 11.2874 10.8164 11.123C10.6125 10.957 10.3759 10.8316 10.1074 10.7461C9.83892 10.6589 9.54654 10.6153 9.23047 10.6152ZM13.8076 15.8379H15.4883L17.25 10.6855H15.8379L14.6699 14.459H14.626L13.458 10.6855H12.0459L13.8076 15.8379ZM14.125 7.28906C14.125 7.7956 14.543 8.20312 15.0625 8.20312H18.7148L14.125 3.72852V7.28906Z" fill="#747474"/>
</svg>
