<svg width="24" height="24" viewBox="0 0 24 24" fill="none" xmlns="http://www.w3.org/2000/svg">
<path d="M4.19999 4.8C3.20624 4.8 2.39999 5.60625 2.39999 6.6C2.39999 7.16625 2.66624 7.69875 3.11999 8.04L10.92 13.89C11.5612 14.37 12.4387 14.37 13.08 13.89L20.88 8.04C21.3337 7.69875 21.6 7.16625 21.6 6.6C21.6 5.60625 20.7937 4.8 19.8 4.8H4.19999ZM2.39999 9.75V16.8C2.39999 18.1237 3.47624 19.2 4.79999 19.2H19.2C20.5237 19.2 21.6 18.1237 21.6 16.8V9.75L14.16 15.33C12.8812 16.29 11.1187 16.29 9.83999 15.33L2.39999 9.75Z" fill="#747474"/>
</svg>
