<svg width="24" height="24" viewBox="0 0 24 24" fill="none" xmlns="http://www.w3.org/2000/svg">
<path d="M17.7697 3.52507C18.6213 5.43213 18.9666 7.45742 19.2894 9.48804C19.2302 9.50485 19.1709 9.52176 19.1116 9.53876C19.0689 9.41998 19.0186 9.3034 18.9847 9.18204C18.7401 8.30768 18.4935 7.43379 18.2594 6.55652C18.1751 6.24092 17.9765 6.08384 17.6924 5.92929C17.2751 5.70232 16.8808 5.40973 16.535 5.08338C16.3144 4.87526 16.1256 4.74827 15.8125 4.7516C13.7285 4.77363 11.6442 4.77574 9.56016 4.79492C9.42127 4.79632 9.24938 4.8476 9.15103 4.93859C8.77186 5.2894 8.41645 5.66581 7.94906 6.13652C9.18188 9.1384 9.80166 12.4103 9.53555 15.8886C8.9437 15.5096 8.48555 15.2098 8.45831 14.4159C8.32219 10.4474 7.098 6.85845 4.5405 3.77018C4.48294 3.70071 4.45434 3.60724 4.41216 3.52502L17.7697 3.52507ZM2.28422 5.05531C2.8778 5.05531 3.47166 5.04593 4.06472 5.06337C4.18237 5.06674 4.347 5.14156 4.40583 5.23587C6.17939 8.0854 7.56211 11.0781 7.74122 14.5022C7.74206 14.5158 7.728 14.5301 7.67737 14.6295C6.61744 11.0064 4.70531 7.93882 2.24587 5.18937L2.28422 5.05531ZM0.375 7.54821C1.22297 7.51737 1.94016 7.48643 2.65744 7.47312C2.72967 7.47171 2.81494 7.56729 2.87541 7.63451C4.27453 9.19085 5.54428 10.8352 6.32695 12.8018C6.47588 13.1758 6.57778 13.5687 6.70144 13.9528C5.08027 11.4016 2.82441 9.49395 0.375 7.54817V7.54821ZM9.49097 20.4749C8.0153 18.1281 6.59395 15.8676 5.17247 13.6071L5.22459 13.5402C5.34375 13.6362 7.87875 15.6689 9.01725 16.6012C9.33441 16.861 9.57403 16.8563 9.90389 16.5884C13.775 13.4438 18.0947 11.0636 22.6812 9.14421C22.926 9.04179 23.18 8.96065 23.4304 8.87159C23.486 8.8519 23.5448 8.84093 23.625 8.86118C18.2989 11.9543 13.2177 15.3411 9.49097 20.4749Z" fill="#747474"/>
</svg>
