<svg width="1273" height="171" viewBox="0 0 1273 171" fill="none" xmlns="http://www.w3.org/2000/svg">
<path opacity="0.33" d="M1182.5 160.5C1208.96 162.057 1235 153 1273 140V0H0V140C0 140 64.4086 120.095 107 118.5C159.385 116.538 239.5 140 239.5 140C239.5 140 335.341 178.048 397 168C436.116 161.625 491.5 131 491.5 131C491.5 131 544.87 105.322 581.5 104.5C616.587 103.713 669 125 669 125C669 125 769.163 166.625 834.5 158C869.399 153.393 920.5 131 920.5 131C920.5 131 980.621 108.573 1020.5 110C1061.81 111.478 1122 140 1122 140C1122 140 1157 159 1182.5 160.5Z" fill="#FFBB58"/>
</svg>
